# xmcd
# 
# Track frame offsets:
#     182
#     23962
#     36625
#     52990
#     67500
#     83015
#     101645
#     129125
#     149490
#     173065
#     189597
#     207720
#     224095
#     243990
#     265667
#     284455
#     303767
#     321692
# 
# Disc length: 4479
# 
# Revision: 64
# Processed by: cddbd v1.5.2PL0 Copyright (c) Steve Scherf et al.
# Submitted via: fre:ac v1.0.27
# 
DISCID=0f117d12
DTITLE=David Bowie - Changesbowie
DYEAR=1990
DGENRE=Pop/Rock
TTITLE0=Space Oddity
TTITLE1=John, I'm Only Dancing
TTITLE2=Changes
TTITLE3=Ziggy Stardust
TTITLE4=Suffragette City
TTITLE5=Jean Genie
TTITLE6=Diamond Dogs
TTITLE7=Rebel Rebel
TTITLE8=Young Americans
TTITLE9=Fame '90 Remix
TTITLE10=Golden Years
TTITLE11=Heroes
TTITLE12=Ashes To Ashes
TTITLE13=Fashion
TTITLE14=Let's Dance
TTITLE15=China Girl
TTITLE16=Modern Love
TTITLE17=Blue Jean
EXTD=CD 1990 - digitally remastered\nEMI CDP 79 4180 2\nCompilation
EXTT0=
EXTT1=
EXTT2=
EXTT3=
EXTT4=
EXTT5=
EXTT6=
EXTT7=
EXTT8=
EXTT9=feat. John Lennon
EXTT10=
EXTT11=
EXTT12=
EXTT13=
EXTT14=
EXTT15=
EXTT16=
EXTT17=
PLAYORDER=
